<svg width="100" height="100" viewBox="0 0 100 100" fill="none" xmlns="http://www.w3.org/2000/svg">
    <circle cx="50" cy="50" r="45" fill="#2563EB" />
    <path d="M50 20C33.4315 20 20 33.4315 20 50C20 66.5685 33.4315 80 50 80C66.5685 80 80 66.5685 80 50C80 33.4315 66.5685 20 50 20ZM50 25C63.8071 25 75 36.1929 75 50C75 63.8071 63.8071 75 50 75C36.1929 75 25 63.8071 25 50C25 36.1929 36.1929 25 50 25Z" fill="white"/>
    <path d="M65 50C65 58.2843 58.2843 65 50 65C41.7157 65 35 58.2843 35 50C35 41.7157 41.7157 35 50 35C58.2843 35 65 41.7157 65 50Z" fill="#1E40AF"/>
    <path d="M57.5 50C57.5 54.1421 54.1421 57.5 50 57.5C45.8579 57.5 42.5 54.1421 42.5 50C42.5 45.8579 45.8579 42.5 50 42.5C54.1421 42.5 57.5 45.8579 57.5 50Z" fill="white"/>
</svg> 